<?xml version="1.0" encoding="utf-8"?>
<!-- Generator: Adobe Illustrator 24.0.1, SVG Export Plug-In . SVG Version: 6.00 Build 0)  -->
<svg version="1.1" id="Layer_1" xmlns="http://www.w3.org/2000/svg" xmlns:xlink="http://www.w3.org/1999/xlink" x="0px" y="0px"
	 viewBox="0 0 822.3 315" style="enable-background:new 0 0 822.3 315;" xml:space="preserve">
<style type="text/css">
	.st0{fill:#1C357C;}
	.st1{font-family:'ShreeDev0714-Bold';}
	.st2{font-size:162.2106px;}
	.st3{fill:#97AB3B;}
	.st4{fill:none;stroke:#97AB3B;stroke-width:16;stroke-linecap:round;stroke-miterlimit:10;}
</style>
<text transform="matrix(1 0 0 1 133.8691 214.4707)" class="st0 st1 st2">phylo</text>
<text transform="matrix(1 0 0 1 528.5691 214.4707)" class="st3 st1 st2">stat</text>
<line class="st4" x1="45.1" y1="63.8" x2="44.4" y2="169.1"/>
<line class="st4" x1="45.7" y1="62.6" x2="122.3" y2="63.2"/>
<line class="st4" x1="124.4" y1="36.4" x2="123.8" y2="89.4"/>
<line class="st4" x1="157.8" y1="36.4" x2="127.6" y2="36.4"/>
<line class="st4" x1="208.8" y1="90.1" x2="124.1" y2="89.8"/>
<line class="st4" x1="45.7" y1="62.6" x2="122.3" y2="63.2"/>
<line class="st4" x1="124.4" y1="36.4" x2="123.8" y2="89.4"/>
<line class="st4" x1="237.4" y1="36.8" x2="126" y2="36.4"/>
<line class="st4" x1="45.1" y1="171.5" x2="82.1" y2="171.9"/>
<line class="st4" x1="85.5" y1="145.1" x2="85.2" y2="198"/>
<line class="st4" x1="117" y1="145.5" x2="87.1" y2="145.2"/>
<line class="st4" x1="117" y1="198" x2="87.1" y2="198"/>
<line class="st4" x1="45.1" y1="171.5" x2="81.5" y2="171.9"/>
<line class="st4" x1="85.5" y1="145.1" x2="85.2" y2="198"/>
</svg>
