<?xml version="1.0" encoding="utf-8"?>
<!-- Generator: Adobe Illustrator 24.0.1, SVG Export Plug-In . SVG Version: 6.00 Build 0)  -->
<svg version="1.1" id="Layer_1" xmlns="http://www.w3.org/2000/svg" xmlns:xlink="http://www.w3.org/1999/xlink" x="0px" y="0px"
	 viewBox="0 0 371.3 75.8" style="enable-background:new 0 0 371.3 75.8;" xml:space="preserve">
<style type="text/css">
	.st0{fill:#5D5E5E;}
	.st1{font-family:'MyriadPro-Regular';}
	.st2{font-size:72.1085px;}
	.st3{fill:none;stroke:#214554;stroke-width:4.3948;stroke-linecap:round;stroke-miterlimit:10;}
	.st4{fill:none;stroke:#602519;stroke-width:4.3948;stroke-linecap:round;stroke-miterlimit:10;}
	.st5{fill:none;stroke:#5D5E5E;stroke-width:0.9039;stroke-miterlimit:10;}
	.st6{fill:#602519;}
	.st7{font-size:23.7868px;}
</style>
<text transform="matrix(1 0 0 1 87.2637 55.8066)" class="st0 st1 st2">phylostat</text>
<line class="st3" x1="7.9" y1="19.4" x2="7.7" y2="53.2"/>
<line class="st4" x1="8.1" y1="19" x2="32.7" y2="19.2"/>
<line class="st4" x1="33.4" y1="10.6" x2="33.2" y2="27.6"/>
<line class="st4" x1="44.1" y1="10.6" x2="34.4" y2="10.6"/>
<line class="st4" x1="50.3" y1="27.5" x2="34.4" y2="27.4"/>
<line class="st4" x1="8.1" y1="19" x2="32.7" y2="19.2"/>
<line class="st4" x1="33.4" y1="10.6" x2="33.2" y2="27.6"/>
<line class="st4" x1="55.3" y1="10.7" x2="34.4" y2="10.6"/>
<line class="st3" x1="7.9" y1="54" x2="19.8" y2="54.1"/>
<line class="st3" x1="20.9" y1="45.5" x2="20.8" y2="62.5"/>
<line class="st3" x1="31.6" y1="45.6" x2="22" y2="45.5"/>
<line class="st3" x1="31.6" y1="62.4" x2="22" y2="62.4"/>
<line class="st3" x1="7.9" y1="54" x2="19.6" y2="54.1"/>
<line class="st3" x1="20.9" y1="45.5" x2="20.8" y2="62.5"/>
<line class="st3" x1="31.6" y1="45.6" x2="22" y2="45.5"/>
<line class="st5" x1="66.4" y1="20.9" x2="66.2" y2="56.7"/>
<line class="st5" x1="66.1" y1="57.4" x2="60.4" y2="57.3"/>
<line class="st5" x1="66.3" y1="20.6" x2="60.7" y2="20.6"/>
<text transform="matrix(1 7.071075e-03 -7.071075e-03 1 71.0529 51.8845)" class="st6 st1 st7">*</text>
</svg>
